<!-- sprite.svg -->
<svg xmlns="http://www.w3.org/2000/svg" style="display:none height: 100% width: 100%">
  <symbol id="linkedin" viewBox="0 0 70 70">
    <path d="M18.958 23.334C21.3743 23.334 23.333 21.3752 23.333 18.959C23.333 16.5427 21.3743 14.584 18.958 14.584C16.5418 14.584 14.583 16.5427 14.583 18.959C14.583 21.3752 16.5418 23.334 18.958 23.334Z" fill="currentColor"/>
    <path d="M14.583 29.1667C14.583 27.5558 15.8889 26.25 17.4997 26.25H20.4163C22.0272 26.25 23.333 27.5558 23.333 29.1667V52.5C23.333 54.1109 22.0272 55.4167 20.4163 55.4167H17.4997C15.8889 55.4167 14.583 54.1109 14.583 52.5V29.1667Z" fill="currentColor"/>
    <path d="M32.0832 55.4167H34.9998C36.6107 55.4167 37.9165 54.1109 37.9165 52.5V39.375C37.9165 35 46.6665 32.0833 46.6665 37.9167V52.5012C46.6665 54.112 47.9723 55.4167 49.5832 55.4167H52.4998C54.1107 55.4167 55.4165 54.1109 55.4165 52.5V35C55.4165 29.1667 51.0415 26.25 45.2082 26.25C39.3748 26.25 37.9165 30.625 37.9165 30.625V29.1667C37.9165 27.5558 36.6107 26.25 34.9998 26.25H32.0832C30.4723 26.25 29.1665 27.5558 29.1665 29.1667V52.5C29.1665 54.1109 30.4723 55.4167 32.0832 55.4167Z" fill="currentColor"/>
    <path fill-rule="evenodd" clip-rule="evenodd" d="M58.3332 2.91699C63.1658 2.91699 67.0832 6.83451 67.0832 11.667V58.3337C67.0832 63.1663 63.1658 67.0837 58.3332 67.0837H11.6665C6.83403 67.0837 2.9165 63.1663 2.9165 58.3337V11.667C2.9165 6.83451 6.83403 2.91699 11.6665 2.91699H58.3332ZM58.3332 8.75033C59.944 8.75033 61.2498 10.0562 61.2498 11.667V58.3337C61.2498 59.9445 59.944 61.2503 58.3332 61.2503H11.6665C10.0557 61.2503 8.74984 59.9445 8.74984 58.3337V11.667C8.74984 10.0562 10.0557 8.75033 11.6665 8.75033H58.3332Z" fill="currentColor"/>
  </symbol>
  <symbol id="x" viewBox="0 0 57 58"
    xmlns="http://www.w3.org/2000/svg">
    <g clip-path="url(#clip0_2_203)">
      <path d="M33.8012 24.5464L54.9448 0H49.9344L31.5755 21.3133L16.9123 0H0L22.1737 32.2295L0 57.9702H5.01062L24.3981 35.4626L39.8836 57.9702H56.7958L33.8 24.5464H33.8012ZM26.9385 32.5135L24.6919 29.3041L6.81602 3.76712H14.512L28.9381 24.3763L31.1847 27.5856L49.9368 54.3744H42.2408L26.9385 32.5147V32.5135Z" fill="currentColor"/>
    </g>
    <defs>
      <clipPath id="clip0_2_203">
        <rect width="56.7958" height="58" fill="currentColor"/>
      </clipPath>
    </defs>
  </symbol>

  <symbol id="facebook" viewBox="0 0 70 70" fill="none"
    xmlns="http://www.w3.org/2000/svg">
    <g clip-path="url(#clip0_2_206)">
      <path d="M29.1667 69.6111C12.6389 66.6944 0 52.3056 0 35C0 15.75 15.75 0 35 0C54.25 0 70 15.75 70 35C70 52.3056 57.3611 66.6944 40.8333 69.6111L38.8889 68.0556H31.1111L29.1667 69.6111Z" fill="currentColor"/>
      <path d="M48.611 44.7224L50.1665 35.0002H40.8332V28.1947C40.8332 25.4724 41.8054 23.3336 46.0832 23.3336H50.5554V14.3891C48.0276 14.0002 45.3054 13.6113 42.7776 13.6113C34.8054 13.6113 29.1665 18.4724 29.1665 27.2224V35.0002H20.4165V44.7224H29.1665V69.4169C31.1109 69.8058 33.0554 70.0002 34.9998 70.0002C36.9443 70.0002 38.8887 69.8058 40.8332 69.4169V44.7224H48.611Z" fill="#08aad6"/>
    </g>
    <defs>
      <linearGradient id="paint0_linear_2_206" x1="3500" y1="6757.71" x2="3500" y2="0" gradientUnits="userSpaceOnUse">
        <stop stop-color="white"/>
        <stop offset="1" stop-color="white"/>
      </linearGradient>
      <clipPath id="clip0_2_206">
        <rect width="70" height="70" fill="white"/>
      </clipPath>
    </defs>
  </symbol>

  <symbol id="instagram" viewBox="0 0 70 70" fill="none"
    xmlns="http://www.w3.org/2000/svg">
    <g clip-path="url(#clip0_2_213)">
      <path d="M35 6.30656C44.3453 6.30656 45.4521 6.34211 49.1427 6.51027C52.5552 6.66613 54.4086 7.23625 55.6421 7.71559C57.2756 8.35051 58.4415 9.10902 59.6662 10.3337C60.8912 11.5585 61.6495 12.7244 62.2844 14.3579C62.7638 15.5914 63.3339 17.4448 63.4897 20.857C63.6579 24.5479 63.6934 25.6547 63.6934 35C63.6934 44.3455 63.6579 45.4524 63.4897 49.143C63.3339 52.5555 62.7638 54.4086 62.2844 55.6421C61.6495 57.2756 60.891 58.4418 59.6662 59.6665C58.4415 60.8913 57.2756 61.6498 55.6421 62.2844C54.4086 62.7638 52.5552 63.3341 49.1427 63.4897C45.4527 63.6582 44.3458 63.6937 35 63.6937C25.6539 63.6937 24.547 63.6582 20.857 63.4897C17.4445 63.3339 15.5914 62.7638 14.3579 62.2844C12.7244 61.6498 11.5582 60.8913 10.3335 59.6665C9.10875 58.4415 8.35023 57.2756 7.71559 55.6421C7.23625 54.4089 6.66586 52.5555 6.51027 49.143C6.34184 45.4524 6.30629 44.3455 6.30629 35C6.30629 25.6547 6.34184 24.5479 6.51027 20.8573C6.66613 17.4448 7.23625 15.5914 7.71559 14.3579C8.35023 12.7244 9.10875 11.5585 10.3335 10.3337C11.5585 9.10875 12.7244 8.35051 14.3579 7.71559C15.5911 7.23625 17.4445 6.66613 20.857 6.51027C24.5476 6.34211 25.6545 6.30656 35 6.30656ZM35 0C25.4945 0 24.3026 0.0401953 20.5696 0.210547C16.844 0.380625 14.2997 0.972344 12.0736 1.8375C9.77184 2.73191 7.82004 3.92875 5.87426 5.87453C3.92848 7.82031 2.73191 9.77211 1.8375 12.0736C0.97207 14.3 0.380625 16.8443 0.210547 20.5696C0.0401953 24.3026 0 25.4945 0 35C0 44.5055 0.0401953 45.6974 0.210547 49.4304C0.380625 53.156 0.97207 55.7003 1.8375 57.9264C2.73164 60.2279 3.92848 62.18 5.87426 64.1257C7.82004 66.0715 9.77184 67.2681 12.0736 68.1625C14.3 69.0279 16.844 69.6194 20.5693 69.7895C24.3026 69.9598 25.4945 70 35 70C44.5055 70 45.6974 69.9598 49.4304 69.7895C53.1557 69.6194 55.7 69.0279 57.9261 68.1625C60.2279 67.2684 62.1797 66.0715 64.1255 64.1257C66.0713 62.18 67.2681 60.2282 68.1625 57.9264C69.0277 55.7 69.6194 53.156 69.7895 49.4307C69.9598 45.6974 70 44.5055 70 35C70 25.4945 69.9598 24.3026 69.7895 20.5696C69.6194 16.8443 69.0277 14.3 68.1625 12.0739C67.2681 9.77211 66.0713 7.82031 64.1255 5.87453C62.1797 3.92875 60.2279 2.73164 57.9264 1.8375C55.7 0.972344 53.1557 0.380625 49.4304 0.210547C45.6974 0.0401953 44.5055 0 35 0ZM35 17.027C25.0737 17.027 17.027 25.0742 17.027 35C17.027 44.9263 25.0737 52.973 35 52.973C44.9261 52.973 52.973 44.9263 52.973 35C52.973 25.0739 44.9261 17.027 35 17.027ZM35 46.6668C28.5567 46.6668 23.3332 41.4433 23.3332 35C23.3332 28.5567 28.5567 23.3332 35 23.3332C41.4433 23.3332 46.6668 28.5567 46.6668 35C46.6668 41.4433 41.4433 46.6668 35 46.6668ZM57.8829 16.3168C57.8829 18.6367 56.0027 20.5168 53.6829 20.5168C51.3633 20.5168 49.4829 18.6367 49.4829 16.3168C49.4829 13.9973 51.3633 12.1168 53.6829 12.1168C56.0027 12.1168 57.8829 13.9973 57.8829 16.3168Z" fill="currentColor"/>
    </g>
    <defs>
      <clipPath id="clip0_2_213">
        <rect width="70" height="70" fill="currentColor"/>
      </clipPath>
    </defs>
  </symbol>
</svg>
